<svg xmlns="http://www.w3.org/2000/svg" viewBox="0 0 32 32" width="64" height="64">
  <path fill="#54AEF0" d="M16,30.36,28.68,23V7.34L16,0,3.32,7.34V23ZM16,1.73,26.94,8.2V22.11L16,28.59,5.06,22.11V8.2Z"/>
  <path fill="#54AEF0" d="M21.11,18.44H19.69V15.5H17.67v2.94H10.89V13.53h10.22Zm-5.11-6.49H14.58V9H12.56v2.94H10.89V9H8.87v2.94H7.44v1.59H21.11V11.95H16Z"/>
  <polygon fill="#54AEF0" points="24.56 13.53 24.56 15.12 24.56 18.44 24.56 20.03 7.44 20.03 7.44 21.62 26.14 21.62 26.14 13.53 24.56 13.53"/>
</svg> 