<svg xmlns="http://www.w3.org/2000/svg" viewBox="0 0 64 64" width="64" height="64">
  <!-- Main circle representing the continuous cycle -->
  <circle cx="32" cy="32" r="30" fill="#F0F0F0" stroke="#4A86E8" stroke-width="2"/>
  
  <!-- Arrows forming a cycle -->
  <path d="M32,10 A22,22 0 0,1 54,32" stroke="#4A86E8" stroke-width="3" fill="none" stroke-linecap="round"/>
  <path d="M54,32 A22,22 0 0,1 32,54" stroke="#4A86E8" stroke-width="3" fill="none" stroke-linecap="round"/>
  <path d="M32,54 A22,22 0 0,1 10,32" stroke="#4A86E8" stroke-width="3" fill="none" stroke-linecap="round"/>
  <path d="M10,32 A22,22 0 0,1 32,10" stroke="#4A86E8" stroke-width="3" fill="none" stroke-linecap="round"/>
  
  <!-- Arrow heads -->
  <polygon points="32,7 36,14 28,14" fill="#4A86E8"/>
  <polygon points="57,32 50,36 50,28" fill="#4A86E8"/>
  <polygon points="32,57 28,50 36,50" fill="#4A86E8"/>
  <polygon points="7,32 14,28 14,36" fill="#4A86E8"/>
  
  <!-- CI text -->
  <text x="26" y="30" font-family="Arial, sans-serif" font-size="10" font-weight="bold" fill="#333333">CI</text>
  
  <!-- CD text -->
  <text x="26" y="42" font-family="Arial, sans-serif" font-size="10" font-weight="bold" fill="#333333">CD</text>
  
  <!-- Code and deploy icons -->
  <rect x="20" y="18" width="8" height="8" rx="1" fill="#4A86E8"/>
  <rect x="36" y="38" width="8" height="8" rx="1" fill="#4A86E8"/>
</svg> 