<svg xmlns="http://www.w3.org/2000/svg" viewBox="0 0 256 185">
  <path fill="#2496ED" d="M250.3 76.3c-3.2-2.1-10.6-2.8-16.3-1.8-0.7-5.4-3.7-10.1-9.1-14.4l-3.1-2.3-2.1 3.3c-2.7 4.3-3.5 10.3-3.1 15.4 0.3 3.9 1.5 7.5 3.5 10.5-2.5 1.4-7.4 2.9-13.8 2.9H0v2.9c0 8.3 1.2 16.5 3.6 24.3 2.4 7.8 6 15.2 10.7 22.1 4.7 6.9 10.5 13.2 17.2 18.8 6.7 5.6 14.3 10.4 22.6 14.3 8.3 3.9 17.2 6.9 26.5 8.9 9.3 2 18.9 3 28.6 3 20.4 0 39.8-4.5 57.5-13.4 17.7-8.9 33.5-21.9 46.8-38.5 13.3-16.6 23.8-36.8 30.9-59.9 7.1 0.2 22.5 0.4 30.5-15.1 0.2-0.4 0.7-1.3 2.2-4.5l0.9-1.8-3.1-2z"/>
  <path fill="#2496ED" d="M47.5 0h-29v29h29V0zm36.3 0h-29v29h29V0zm36.3 0h-29v29h29V0zm36.3 0h-29v29h29V0zm-108.9 36.3h-29v29h29v-29zm36.3 0h-29v29h29v-29zm36.3 0h-29v29h29v-29zm36.3 0h-29v29h29v-29zm-72.6 36.3h-29v29h29v-29zm36.3 0h-29v29h29v-29z"/>
</svg> 