<svg xmlns="http://www.w3.org/2000/svg" viewBox="0 0 32 32" width="64" height="64">
  <path fill="#599636" d="M16,32l-1.7-0.6C14.3,31.4,6,28.2,6,17.6V7.5l10-3.5l10,3.5v10.1c0,10.6-8.3,13.8-8.3,13.8L16,32z"/>
  <path fill="#6CAC48" d="M16,4.8v25.4c0,0,7.7-3,7.7-12.6V8.3L16,4.8z"/>
  <path fill="#4D8C44" d="M16,4.8L8.3,8.3v9.3c0,9.6,7.7,12.6,7.7,12.6V4.8z"/>
  <path fill="#FFFFFF" d="M15.8,17.8c0,0-0.9-0.6-1-1.4c-0.1-0.8,0.6-1.6,0.6-1.6c0.3-0.4,0.4-1.1,0.4-1.5c0-0.4,0.2-2.4,0.2-2.4c0.1-0.9,0.3-3,0.3-3c0.1-0.7-0.1-2-0.1-2s0.6,1.5,0.7,2.5c0.1,1,0,3.5,0,3.5c0,0-0.2,1.9,0,2.8c0.2,0.9,0.5,1.7,0.4,2.1c-0.1,0.4-0.5,1.1-0.5,1.1s-0.3-0.7-0.8-0.9C15.5,16.8,15.8,17.8,15.8,17.8z"/>
</svg> 