<svg xmlns="http://www.w3.org/2000/svg" viewBox="0 0 32 32" width="64" height="64">
  <path fill="#FF6C37" d="M16,0C7.2,0,0,7.2,0,16c0,8.8,7.2,16,16,16c8.8,0,16-7.2,16-16C32,7.2,24.8,0,16,0z M16,28.8C8.9,28.8,3.2,23.1,3.2,16C3.2,8.9,8.9,3.2,16,3.2c7.1,0,12.8,5.7,12.8,12.8C28.8,23.1,23.1,28.8,16,28.8z"/>
  <path fill="#FF6C37" d="M22.2,9.8c-0.2-0.2-0.5-0.2-0.7,0l-5.3,5.3l-1.9-1.9c-0.2-0.2-0.5-0.2-0.7,0c-0.2,0.2-0.2,0.5,0,0.7l2.3,2.3c0.1,0.1,0.2,0.1,0.4,0.1c0.1,0,0.3,0,0.4-0.1l5.7-5.7C22.4,10.3,22.4,10,22.2,9.8z"/>
  <path fill="#FF6C37" d="M21.4,15.6c-0.3,0-0.5,0.2-0.5,0.5v4.2c0,0.3-0.2,0.5-0.5,0.5h-8.4c-0.3,0-0.5-0.2-0.5-0.5v-8.4c0-0.3,0.2-0.5,0.5-0.5h4.2c0.3,0,0.5-0.2,0.5-0.5c0-0.3-0.2-0.5-0.5-0.5h-4.2c-0.8,0-1.5,0.7-1.5,1.5v8.4c0,0.8,0.7,1.5,1.5,1.5h8.4c0.8,0,1.5-0.7,1.5-1.5v-4.2C21.9,15.8,21.7,15.6,21.4,15.6z"/>
</svg> 