<svg xmlns="http://www.w3.org/2000/svg" viewBox="0 0 32 32" width="64" height="64">
  <path fill="#A41E11" d="M16,0C7.2,0,0,7.2,0,16c0,8.8,7.2,16,16,16c8.8,0,16-7.2,16-16C32,7.2,24.8,0,16,0z M24.2,20.3l-3.6,1.7l-4.3,2l-2.3,1.1l-2-0.6l-3.5-1.4l-2.3-1.3v-2.1l2.1-0.8l3.5-1.4l2-0.6l2.3,1.1l4.3,2l3.6,1.7V20.3z M24.2,16.5l-3.6,1.7l-4.3,2l-2.3,1.1l-2-0.6l-3.5-1.4l-2.3-1.3v-2.1l2.1-0.8l3.5-1.4l2-0.6l2.3,1.1l4.3,2l3.6,1.7V16.5z M24.2,12.7l-3.6,1.7l-4.3,2l-2.3,1.1l-2-0.6l-3.5-1.4l-2.3-1.3v-2.1l2.1-0.8l3.5-1.4l2-0.6l2.3,1.1l4.3,2l3.6,1.7V12.7z"/>
</svg> 