<svg xmlns="http://www.w3.org/2000/svg" viewBox="0 0 32 32" width="64" height="64">
  <path fill="#8DD6F9" d="M28,24.2l-12,6.8v-5.3l7.5-4.1L28,24.2z M28.5,23.7V8.6l-4.2,2.4v10.2L28.5,23.7z M4,24.2l12,6.8v-5.3l-7.5-4.1L4,24.2z M3.5,23.7V8.6l4.2,2.4v10.2L3.5,23.7z M4.2,7.8L16,1.1v5.1L8.1,10.5L8,10.6L4.2,7.8z M27.8,7.8L16,1.1v5.1l7.9,4.3l0.1,0.1L27.8,7.8z"/>
  <path fill="#1C78C0" d="M16,25.7l-7.4-4.1V13.2L16,17.5V25.7z M16,25.7l7.4-4.1V13.2L16,17.5V25.7z M8.1,10.6l7.9-4.3l7.9,4.3L16,15.1L8.1,10.6z"/>
</svg> 